<svg width="50" height="47" viewBox="0 0 50 47" fill="none" xmlns="http://www.w3.org/2000/svg">
<mask id="path-1-outside-1" maskUnits="userSpaceOnUse" x="0" y="0" width="50" height="47" fill="black">
<rect fill="white" width="50" height="47"/>
<path fill-rule="evenodd" clip-rule="evenodd" d="M25 42.186C13.74 31.108 3 21.592 3 13.382C3 5.8 9.136 3 13.562 3C16.186 3 21.864 4.002 25 11.914C28.18 3.978 33.928 3.02 36.452 3.02C41.532 3.02 47 6.262 47 13.382C47 21.52 36.728 30.632 25 42.186ZM36.452 1.02C32.046 1.02 27.56 3.104 25 7.496C22.43 3.084 17.956 1 13.562 1C7.196 1 1 5.374 1 13.382C1 22.704 12.142 32.24 25 45C37.86 32.24 49 22.704 49 13.382C49 5.36 42.81 1.02 36.452 1.02"/>
</mask>
<path fill-rule="evenodd" clip-rule="evenodd" d="M25 42.186C13.74 31.108 3 21.592 3 13.382C3 5.8 9.136 3 13.562 3C16.186 3 21.864 4.002 25 11.914C28.18 3.978 33.928 3.02 36.452 3.02C41.532 3.02 47 6.262 47 13.382C47 21.52 36.728 30.632 25 42.186ZM36.452 1.02C32.046 1.02 27.56 3.104 25 7.496C22.43 3.084 17.956 1 13.562 1C7.196 1 1 5.374 1 13.382C1 22.704 12.142 32.24 25 45C37.86 32.24 49 22.704 49 13.382C49 5.36 42.81 1.02 36.452 1.02" fill="black"/>
<path d="M25 42.186L24.2987 42.8988L25.0005 43.5893L25.7018 42.8984L25 42.186ZM25 11.914L24.0704 12.2825L24.9949 14.6151L25.9283 12.286L25 11.914ZM25 7.496L24.1359 7.99934L24.9997 9.48227L25.864 7.99958L25 7.496ZM25 45L24.2956 45.7098L24.9999 46.4088L25.7043 45.7099L25 45ZM25.7013 41.4732C20.0409 35.9042 14.5931 30.8054 10.5378 26.0589C6.45164 21.2763 4 17.0916 4 13.382H2C2 17.8824 4.91836 22.5607 9.01721 27.3581C13.1469 32.1916 18.6991 37.3898 24.2987 42.8988L25.7013 41.4732ZM4 13.382C4 9.89749 5.3935 7.59103 7.24088 6.13265C9.12376 4.64623 11.5355 4 13.562 4V2C11.1625 2 8.29324 2.75377 6.00162 4.56285C3.6745 6.39997 2 9.28451 2 13.382H4ZM13.562 4C14.7533 4 16.6422 4.22816 18.5877 5.35528C20.5177 6.47337 22.5786 8.51885 24.0704 12.2825L25.9296 11.5455C24.2854 7.39715 21.9393 4.98563 19.5903 3.62472C17.2568 2.27284 14.9947 2 13.562 2V4ZM25.9283 12.286C27.4404 8.51228 29.5279 6.4706 31.469 5.35873C33.4263 4.23764 35.3094 4.02 36.452 4.02V2.02C35.0706 2.02 32.8177 2.28136 30.475 3.62327C28.1161 4.9744 25.7396 7.37972 24.0717 11.542L25.9283 12.286ZM36.452 4.02C38.7927 4.02 41.1893 4.76909 42.9836 6.29316C44.7536 7.79659 46 10.1044 46 13.382H48C48 9.53962 46.5124 6.66641 44.2784 4.76884C42.0687 2.89191 39.1913 2.02 36.452 2.02V4.02ZM46 13.382C46 17.0604 43.6591 21.1288 39.6365 25.8548C35.64 30.5502 30.1923 35.667 24.2982 41.4736L25.7018 42.8984C31.5357 37.151 37.088 31.9348 41.1595 27.1512C45.2049 22.3982 48 17.8416 48 13.382H46ZM36.452 0.02C31.7354 0.02 26.8969 2.25592 24.136 6.99242L25.864 7.99958C28.2231 3.95208 32.3566 2.02 36.452 2.02V0.02ZM25.8641 6.99267C23.0944 2.23793 18.2692 0 13.562 0V2C17.6428 2 21.7656 3.93007 24.1359 7.99934L25.8641 6.99267ZM13.562 0C6.75283 0 0 4.71858 0 13.382H2C2 6.02942 7.63917 2 13.562 2V0ZM0 13.382C0 18.4278 3.0045 23.3828 7.41778 28.5511C11.8462 33.7372 17.9046 39.3675 24.2956 45.7098L25.7044 44.2902C19.2374 37.8725 13.2958 32.3548 8.93872 27.2524C4.5665 22.1322 2 17.6582 2 13.382H0ZM25.7043 45.7099C32.0964 39.3675 38.1547 33.7372 42.583 28.5511C46.9961 23.3828 50 18.4278 50 13.382H48C48 17.6582 45.4339 22.1322 41.062 27.2524C36.7053 32.3548 30.7636 37.8725 24.2957 44.2901L25.7043 45.7099ZM50 13.382C50 4.70267 43.251 0.02 36.452 0.02V2.02C42.369 2.02 48 6.01733 48 13.382H50Z" fill="black" mask="url(#path-1-outside-1)"/>
</svg>
