<svg width="45" height="46" viewBox="0 0 45 46" fill="none" xmlns="http://www.w3.org/2000/svg">
<path d="M10 36.5L8.02559 42.8181C7.79401 43.5592 8.45848 44.27 9.21344 44.0888L20 41.5" stroke="black" stroke-width="3" stroke-linecap="round" stroke-linejoin="round"/>
<path d="M9.62927 26.0436C8.82492 26.8006 8.78657 28.0664 9.5436 28.8707C10.3006 29.6751 11.5664 29.7134 12.3707 28.9564L9.62927 26.0436ZM35.4621 18.8646C36.2158 18.0571 36.1721 16.7916 35.3646 16.0379C34.5571 15.2842 33.2916 15.3279 32.5379 16.1354L35.4621 18.8646ZM26.2837 24.4747L25.101 26.0875L26.2837 24.4747ZM27.6061 24.3506L26.144 22.986L27.6061 24.3506ZM18.8942 20.0702L17.5234 18.6138L18.8942 20.0702ZM12.3707 28.9564L20.2649 21.5266L17.5234 18.6138L9.62927 26.0436L12.3707 28.9564ZM18.9882 21.6048L25.101 26.0875L27.4664 22.8619L21.3536 18.3792L18.9882 21.6048ZM29.0682 25.7152L35.4621 18.8646L32.5379 16.1354L26.144 22.986L29.0682 25.7152ZM25.101 26.0875C26.3267 26.9864 28.0311 26.8265 29.0682 25.7152L26.144 22.986C26.4897 22.6156 27.0578 22.5623 27.4664 22.8619L25.101 26.0875ZM20.2649 21.5266C19.9138 21.857 19.377 21.8899 18.9882 21.6048L21.3536 18.3792C20.1873 17.5239 18.5767 17.6225 17.5234 18.6138L20.2649 21.5266Z" fill="black"/>
<path fill-rule="evenodd" clip-rule="evenodd" d="M41 21.5C41 30.9956 32.8906 39 22.5 39C21.7889 39 21.0885 38.9625 20.4006 38.8896C20.3081 39.1464 20.1091 39.3694 19.8026 39.4809L17 40.5L13.9178 41.3806C16.5625 42.4242 19.4609 43 22.5 43C34.9264 43 45 33.3741 45 21.5C45 9.62588 34.9264 0 22.5 0C10.0736 0 0 9.62588 0 21.5C0 29.1932 4.22861 35.9427 10.586 39.7419L11.8868 35.8396C7.08471 32.6457 4 27.3564 4 21.5C4 12.0044 12.1094 4 22.5 4C32.8906 4 41 12.0044 41 21.5Z" fill="black"/>
</svg>
