<svg width="43" height="47" viewBox="0 0 43 47" fill="none" xmlns="http://www.w3.org/2000/svg">
<rect x="2" y="12" width="39" height="33" rx="10" stroke="black" stroke-width="4"/>
<path fill-rule="evenodd" clip-rule="evenodd" d="M27.8164 17C27.4846 19.2146 26.7304 21.1015 25.7782 22.4821C24.4731 24.3745 23.0707 25 22 25C20.9292 25 19.5269 24.3745 18.2218 22.4821C17.2696 21.1015 16.5154 19.2146 16.1836 17H12.1481C12.9651 23.8168 17.0651 29 22 29C26.9349 29 31.0349 23.8168 31.8519 17H27.8164ZM27.9928 14H31.9942C31.8124 6.22339 27.4074 0 22 0C16.5926 0 12.1876 6.22339 12.0058 14H16.0071C16.0955 10.9195 16.9941 8.29796 18.2218 6.51788C19.5269 4.62547 20.9292 4 22 4C23.0707 4 24.4731 4.62547 25.7782 6.51788C27.0058 8.29796 27.9045 10.9195 27.9928 14Z" fill="black"/>
</svg>
